<mxfile host="app.diagrams.net" modified="2023-07-13T23:12:07.655Z" agent="Mozilla/5.0 (Macintosh; Intel Mac OS X 10_15_7) AppleWebKit/605.1.15 (KHTML, like Gecko) Version/16.5.2 Safari/605.1.15" etag="UWFpTf93MNH7iKsP8hkB" version="21.6.2" type="google">
  <diagram name="Page-1" id="MFBqY2m70f1yELMXtrmf">
    <mxGraphModel dx="925" dy="1738" grid="1" gridSize="10" guides="1" tooltips="1" connect="1" arrows="1" fold="1" page="1" pageScale="1" pageWidth="850" pageHeight="1100" math="0" shadow="0">
      <root>
        <mxCell id="0" />
        <mxCell id="1" parent="0" />
        <mxCell id="xZiLO_F2WsUACHUn_YJy-37" style="edgeStyle=orthogonalEdgeStyle;rounded=0;orthogonalLoop=1;jettySize=auto;html=1;exitX=1;exitY=0.5;exitDx=0;exitDy=0;exitPerimeter=0;entryX=0;entryY=0.5;entryDx=0;entryDy=0;entryPerimeter=0;" edge="1" parent="1" source="xZiLO_F2WsUACHUn_YJy-27" target="xZiLO_F2WsUACHUn_YJy-30">
          <mxGeometry relative="1" as="geometry" />
        </mxCell>
        <mxCell id="xZiLO_F2WsUACHUn_YJy-38" value="Receipt rule:&lt;br&gt;support@&lt;br&gt;&lt;i&gt;stage&lt;/i&gt;.gcn.nasa.gov" style="edgeLabel;html=1;align=center;verticalAlign=middle;resizable=0;points=[];" vertex="1" connectable="0" parent="xZiLO_F2WsUACHUn_YJy-37">
          <mxGeometry y="-1" relative="1" as="geometry">
            <mxPoint x="1" y="20" as="offset" />
          </mxGeometry>
        </mxCell>
        <mxCell id="xZiLO_F2WsUACHUn_YJy-27" value="Simple Email&lt;br&gt;Service (SES)" style="sketch=0;points=[[0,0,0],[0.25,0,0],[0.5,0,0],[0.75,0,0],[1,0,0],[0,1,0],[0.25,1,0],[0.5,1,0],[0.75,1,0],[1,1,0],[0,0.25,0],[0,0.5,0],[0,0.75,0],[1,0.25,0],[1,0.5,0],[1,0.75,0]];outlineConnect=0;fontColor=#232F3E;gradientColor=#4D72F3;gradientDirection=north;fillColor=#3334B9;strokeColor=#ffffff;dashed=0;verticalLabelPosition=bottom;verticalAlign=top;align=center;html=1;fontSize=12;fontStyle=0;aspect=fixed;shape=mxgraph.aws4.resourceIcon;resIcon=mxgraph.aws4.simple_email_service;" vertex="1" parent="1">
          <mxGeometry x="280" y="-480" width="78" height="78" as="geometry" />
        </mxCell>
        <mxCell id="xZiLO_F2WsUACHUn_YJy-47" style="edgeStyle=orthogonalEdgeStyle;rounded=0;orthogonalLoop=1;jettySize=auto;html=1;exitX=1;exitY=0.5;exitDx=0;exitDy=0;exitPerimeter=0;" edge="1" parent="1" source="xZiLO_F2WsUACHUn_YJy-30" target="xZiLO_F2WsUACHUn_YJy-26">
          <mxGeometry relative="1" as="geometry" />
        </mxCell>
        <mxCell id="xZiLO_F2WsUACHUn_YJy-50" value="Invoke&lt;br&gt;Lambda&lt;br&gt;function" style="edgeLabel;html=1;align=center;verticalAlign=middle;resizable=0;points=[];" vertex="1" connectable="0" parent="xZiLO_F2WsUACHUn_YJy-47">
          <mxGeometry relative="1" as="geometry">
            <mxPoint y="21" as="offset" />
          </mxGeometry>
        </mxCell>
        <mxCell id="xZiLO_F2WsUACHUn_YJy-30" value="Simple Notification&lt;br&gt;Service (SNS)" style="sketch=0;points=[[0,0,0],[0.25,0,0],[0.5,0,0],[0.75,0,0],[1,0,0],[0,1,0],[0.25,1,0],[0.5,1,0],[0.75,1,0],[1,1,0],[0,0.25,0],[0,0.5,0],[0,0.75,0],[1,0.25,0],[1,0.5,0],[1,0.75,0]];outlineConnect=0;fontColor=#232F3E;gradientColor=#FF4F8B;gradientDirection=north;fillColor=#BC1356;strokeColor=#ffffff;dashed=0;verticalLabelPosition=bottom;verticalAlign=top;align=center;html=1;fontSize=12;fontStyle=0;aspect=fixed;shape=mxgraph.aws4.resourceIcon;resIcon=mxgraph.aws4.sns;" vertex="1" parent="1">
          <mxGeometry x="470" y="-480" width="78" height="78" as="geometry" />
        </mxCell>
        <mxCell id="xZiLO_F2WsUACHUn_YJy-32" value="Support&lt;br&gt;request&lt;br&gt;by email" style="sketch=0;outlineConnect=0;fontColor=#232F3E;gradientColor=none;strokeColor=#232F3E;fillColor=#ffffff;dashed=0;verticalLabelPosition=bottom;verticalAlign=top;align=center;html=1;fontSize=12;fontStyle=0;aspect=fixed;shape=mxgraph.aws4.resourceIcon;resIcon=mxgraph.aws4.email;" vertex="1" parent="1">
          <mxGeometry x="190" y="-440" width="30" height="30" as="geometry" />
        </mxCell>
        <mxCell id="xZiLO_F2WsUACHUn_YJy-45" value="" style="edgeStyle=orthogonalEdgeStyle;html=1;endArrow=block;elbow=vertical;startArrow=none;endFill=1;strokeColor=#545B64;rounded=0;" edge="1" parent="1">
          <mxGeometry width="100" relative="1" as="geometry">
            <mxPoint x="180" y="-440" as="sourcePoint" />
            <mxPoint x="280" y="-440" as="targetPoint" />
          </mxGeometry>
        </mxCell>
        <mxCell id="xZiLO_F2WsUACHUn_YJy-46" value="AWS Cloud" style="points=[[0,0],[0.25,0],[0.5,0],[0.75,0],[1,0],[1,0.25],[1,0.5],[1,0.75],[1,1],[0.75,1],[0.5,1],[0.25,1],[0,1],[0,0.75],[0,0.5],[0,0.25]];outlineConnect=0;gradientColor=none;html=1;whiteSpace=wrap;fontSize=12;fontStyle=0;container=1;pointerEvents=0;collapsible=0;recursiveResize=0;shape=mxgraph.aws4.group;grIcon=mxgraph.aws4.group_aws_cloud_alt;strokeColor=#232F3E;fillColor=none;verticalAlign=top;align=left;spacingLeft=30;fontColor=#232F3E;dashed=0;" vertex="1" parent="1">
          <mxGeometry x="250" y="-522" width="620" height="302" as="geometry" />
        </mxCell>
        <mxCell id="xZiLO_F2WsUACHUn_YJy-49" style="edgeStyle=orthogonalEdgeStyle;rounded=0;orthogonalLoop=1;jettySize=auto;html=1;exitX=0.5;exitY=1;exitDx=0;exitDy=0;exitPerimeter=0;" edge="1" parent="xZiLO_F2WsUACHUn_YJy-46" source="xZiLO_F2WsUACHUn_YJy-26" target="xZiLO_F2WsUACHUn_YJy-28">
          <mxGeometry relative="1" as="geometry" />
        </mxCell>
        <mxCell id="xZiLO_F2WsUACHUn_YJy-51" value="Save copy&lt;br&gt;of email to&lt;br&gt;S3 bucket" style="edgeLabel;html=1;align=center;verticalAlign=middle;resizable=0;points=[];" vertex="1" connectable="0" parent="xZiLO_F2WsUACHUn_YJy-49">
          <mxGeometry x="0.0323" y="1" relative="1" as="geometry">
            <mxPoint x="30" as="offset" />
          </mxGeometry>
        </mxCell>
        <mxCell id="xZiLO_F2WsUACHUn_YJy-52" style="edgeStyle=orthogonalEdgeStyle;rounded=0;orthogonalLoop=1;jettySize=auto;html=1;exitX=1;exitY=0.5;exitDx=0;exitDy=0;exitPerimeter=0;entryX=0;entryY=0.5;entryDx=0;entryDy=0;entryPerimeter=0;" edge="1" parent="xZiLO_F2WsUACHUn_YJy-46" source="xZiLO_F2WsUACHUn_YJy-26" target="xZiLO_F2WsUACHUn_YJy-48">
          <mxGeometry relative="1" as="geometry" />
        </mxCell>
        <mxCell id="xZiLO_F2WsUACHUn_YJy-60" value="Forward&lt;br&gt;email" style="edgeLabel;html=1;align=center;verticalAlign=middle;resizable=0;points=[];" vertex="1" connectable="0" parent="xZiLO_F2WsUACHUn_YJy-52">
          <mxGeometry x="-0.0312" y="-4" relative="1" as="geometry">
            <mxPoint y="12" as="offset" />
          </mxGeometry>
        </mxCell>
        <mxCell id="xZiLO_F2WsUACHUn_YJy-26" value="" style="sketch=0;points=[[0,0,0],[0.25,0,0],[0.5,0,0],[0.75,0,0],[1,0,0],[0,1,0],[0.25,1,0],[0.5,1,0],[0.75,1,0],[1,1,0],[0,0.25,0],[0,0.5,0],[0,0.75,0],[1,0.25,0],[1,0.5,0],[1,0.75,0]];outlineConnect=0;fontColor=#232F3E;gradientColor=#F78E04;gradientDirection=north;fillColor=#D05C17;strokeColor=#ffffff;dashed=0;verticalLabelPosition=bottom;verticalAlign=top;align=center;html=1;fontSize=12;fontStyle=0;aspect=fixed;shape=mxgraph.aws4.resourceIcon;resIcon=mxgraph.aws4.lambda;" vertex="1" parent="xZiLO_F2WsUACHUn_YJy-46">
          <mxGeometry x="380" y="42" width="78" height="78" as="geometry" />
        </mxCell>
        <mxCell id="xZiLO_F2WsUACHUn_YJy-28" value="Simple Storage&lt;br&gt;Service (S3)" style="sketch=0;points=[[0,0,0],[0.25,0,0],[0.5,0,0],[0.75,0,0],[1,0,0],[0,1,0],[0.25,1,0],[0.5,1,0],[0.75,1,0],[1,1,0],[0,0.25,0],[0,0.5,0],[0,0.75,0],[1,0.25,0],[1,0.5,0],[1,0.75,0]];outlineConnect=0;fontColor=#232F3E;gradientColor=#60A337;gradientDirection=north;fillColor=#277116;strokeColor=#ffffff;dashed=0;verticalLabelPosition=bottom;verticalAlign=top;align=center;html=1;fontSize=12;fontStyle=0;aspect=fixed;shape=mxgraph.aws4.resourceIcon;resIcon=mxgraph.aws4.s3;" vertex="1" parent="xZiLO_F2WsUACHUn_YJy-46">
          <mxGeometry x="380" y="182" width="78" height="78" as="geometry" />
        </mxCell>
        <mxCell id="xZiLO_F2WsUACHUn_YJy-48" value="Simple Email&lt;br&gt;Service (SES)" style="sketch=0;points=[[0,0,0],[0.25,0,0],[0.5,0,0],[0.75,0,0],[1,0,0],[0,1,0],[0.25,1,0],[0.5,1,0],[0.75,1,0],[1,1,0],[0,0.25,0],[0,0.5,0],[0,0.75,0],[1,0.25,0],[1,0.5,0],[1,0.75,0]];outlineConnect=0;fontColor=#232F3E;gradientColor=#4D72F3;gradientDirection=north;fillColor=#3334B9;strokeColor=#ffffff;dashed=0;verticalLabelPosition=bottom;verticalAlign=top;align=center;html=1;fontSize=12;fontStyle=0;aspect=fixed;shape=mxgraph.aws4.resourceIcon;resIcon=mxgraph.aws4.simple_email_service;" vertex="1" parent="xZiLO_F2WsUACHUn_YJy-46">
          <mxGeometry x="522" y="42" width="78" height="78" as="geometry" />
        </mxCell>
        <mxCell id="xZiLO_F2WsUACHUn_YJy-57" value="Zendesk" style="sketch=0;points=[[0,0,0],[0.25,0,0],[0.5,0,0],[0.75,0,0],[1,0,0],[0,1,0],[0.25,1,0],[0.5,1,0],[0.75,1,0],[1,1,0],[0,0.25,0],[0,0.5,0],[0,0.75,0],[1,0.25,0],[1,0.5,0],[1,0.75,0]];gradientDirection=north;outlineConnect=0;fontColor=#232F3E;gradientColor=#505863;fillColor=#1E262E;strokeColor=#ffffff;dashed=0;verticalLabelPosition=bottom;verticalAlign=top;align=center;html=1;fontSize=12;fontStyle=0;aspect=fixed;shape=mxgraph.aws4.resourceIcon;resIcon=mxgraph.aws4.general;" vertex="1" parent="1">
          <mxGeometry x="980" y="-480" width="78" height="78" as="geometry" />
        </mxCell>
        <mxCell id="xZiLO_F2WsUACHUn_YJy-58" style="edgeStyle=orthogonalEdgeStyle;rounded=0;orthogonalLoop=1;jettySize=auto;html=1;exitX=1;exitY=0.5;exitDx=0;exitDy=0;exitPerimeter=0;" edge="1" parent="1" source="xZiLO_F2WsUACHUn_YJy-48" target="xZiLO_F2WsUACHUn_YJy-57">
          <mxGeometry relative="1" as="geometry" />
        </mxCell>
        <mxCell id="xZiLO_F2WsUACHUn_YJy-59" value="Forwarded to&lt;br&gt;support@&lt;br&gt;nasa-gcn.&lt;br&gt;zendesk.com" style="sketch=0;outlineConnect=0;fontColor=#232F3E;gradientColor=none;strokeColor=#232F3E;fillColor=#ffffff;dashed=0;verticalLabelPosition=bottom;verticalAlign=top;align=center;html=1;fontSize=12;fontStyle=0;aspect=fixed;shape=mxgraph.aws4.resourceIcon;resIcon=mxgraph.aws4.email;" vertex="1" parent="1">
          <mxGeometry x="910" y="-440" width="30" height="30" as="geometry" />
        </mxCell>
        <mxCell id="xZiLO_F2WsUACHUn_YJy-64" value="End Users" style="sketch=0;outlineConnect=0;fontColor=#232F3E;gradientColor=none;fillColor=#232F3D;strokeColor=none;dashed=0;verticalLabelPosition=bottom;verticalAlign=top;align=center;html=1;fontSize=12;fontStyle=0;aspect=fixed;pointerEvents=1;shape=mxgraph.aws4.users;" vertex="1" parent="1">
          <mxGeometry x="90" y="-480" width="78" height="78" as="geometry" />
        </mxCell>
      </root>
    </mxGraphModel>
  </diagram>
</mxfile>
